HIERARCHY
ROOT Hips
{
	OFFSET 0.000000 0.000000 0.000000
	CHANNELS 6 Xposition Yposition Zposition Yrotation Xrotation Zrotation 
	JOINT LeftHip
	{
		OFFSET 0.089933 0.000579 -0.000064
		CHANNELS 3 Yrotation Xrotation Zrotation
		JOINT LeftKnee
		{
			OFFSET 0.000000 -0.450274 0.000001
			CHANNELS 3 Yrotation Xrotation Zrotation
			JOINT LeftAnkle
			{
				OFFSET 0.000000 -0.455087 0.000283
				CHANNELS 3 Yrotation Xrotation Zrotation
				JOINT LeftToe
				{
					OFFSET 0.000000 -0.083893 0.183160
					CHANNELS 3 Yrotation Xrotation Zrotation
					End Site
					{
						OFFSET 0.000000 0.000000 0.000000
					}
				}
			}
		}
	}
	JOINT RightHip
	{
		OFFSET -0.089933 0.000604 -0.000067
		CHANNELS 3 Yrotation Xrotation Zrotation
		JOINT RightKnee
		{
			OFFSET 0.000000 -0.450274 0.000001
			CHANNELS 3 Yrotation Xrotation Zrotation
			JOINT RightAnkle
			{
				OFFSET 0.000000 -0.455087 0.000283
				CHANNELS 3 Yrotation Xrotation Zrotation
				JOINT RightToe
				{
					OFFSET 0.000000 -0.083893 0.183160
					CHANNELS 3 Yrotation Xrotation Zrotation
					End Site
					{
						OFFSET 0.000000 0.000000 0.000000
					}
				}
			}
		}
	}
	JOINT Chest
	{
		OFFSET 0.000000 0.108199 -0.012022
		CHANNELS 3 Yrotation Xrotation Zrotation
		JOINT Chest3
		{
			OFFSET 0.000000 0.206168 -0.010257
			CHANNELS 3 Yrotation Xrotation Zrotation
			JOINT Chest4
			{
				OFFSET 0.000000 0.098558 -0.000242
				CHANNELS 3 Yrotation Xrotation Zrotation
				JOINT Neck
				{
					OFFSET 0.000000 0.137369 0.000000
					CHANNELS 3 Yrotation Xrotation Zrotation
					JOINT Head
					{
						OFFSET 0.000000 0.088151 0.000814
						CHANNELS 3 Yrotation Xrotation Zrotation
						End Site
						{
							OFFSET 0.000000 0.000000 0.000000
						}
					}
				}
				JOINT LeftCollar
				{
					OFFSET 0.030193 0.077146 0.000000
					CHANNELS 3 Yrotation Xrotation Zrotation
					JOINT LeftShoulder
					{
						OFFSET 0.144780 0.000000 0.000000
						CHANNELS 3 Yrotation Xrotation Zrotation
						JOINT LeftElbow
						{
							OFFSET 0.276846 0.000000 0.000000
							CHANNELS 3 Yrotation Xrotation Zrotation
							JOINT LeftWrist
							{
								OFFSET 0.268574 0.000000 0.000066
								CHANNELS 3 Yrotation Xrotation Zrotation
								End Site
								{
									OFFSET 0.000000 0.000000 0.000000
								}
							}
						}
					}
				}
				JOINT RightCollar
				{
					OFFSET -0.030193 0.077146 0.000000
					CHANNELS 3 Yrotation Xrotation Zrotation
					JOINT RightShoulder
					{
						OFFSET -0.144780 0.000000 0.000000
						CHANNELS 3 Yrotation Xrotation Zrotation
						JOINT RightElbow
						{
							OFFSET -0.276846 0.000000 0.000000
							CHANNELS 3 Yrotation Xrotation Zrotation
							JOINT RightWrist
							{
								OFFSET -0.268574 0.000000 0.000066
								CHANNELS 3 Yrotation Xrotation Zrotation
								End Site
								{
									OFFSET 0.000000 0.000000 0.000000
								}
							}
						}
					}
				}
			}
		}
	}
}
MOTION
Frames: 16
Frame Time: 0.016667
0.000000 0.000000 0.000000 146.785691 -1.651047 2.351731 17.308995 -12.911716 1.833914 5.393829 47.609869 1.734919 3.679603 12.571502 -5.316083 0.944550 -44.253646 -2.376839 -3.289746 -6.581099 8.283179 -4.385963 9.487116 0.783580 -30.728358 -7.353341 -12.146818 0.000000 -0.000000 0.000000 0.535444 0.654037 -1.724282 0.633320 -5.249592 -1.539345 0.181663 6.048437 -0.556956 -3.681798 10.276941 0.794297 -7.492562 -16.792787 3.213915 -2.861467 2.628600 -11.627670 -0.436334 -14.296523 -68.121817 0.903211 1.634577 -1.731281 -1.387151 6.946113 -0.993588 2.916276 10.039700 5.498473 10.347042 -27.265011 80.120966 6.256248 16.062265 -5.204381 7.439386 5.539276 15.039558 
0.000000 0.000000 0.000000 145.046978 -1.651970 2.346208 18.193086 -14.438011 1.744987 4.815812 49.374482 1.887771 3.887267 13.907325 -3.748148 1.850369 -45.797161 -4.378987 -2.378576 -6.564155 8.357195 -4.099899 10.043182 0.782003 -30.249630 -7.788142 -11.971750 0.000000 -0.000000 0.000000 0.556019 0.780806 -1.720859 0.651480 -5.136938 -1.536075 0.189003 6.090629 -0.555241 -4.323010 10.218771 0.836430 -8.757620 -16.851952 3.590110 -2.827709 2.399590 -11.819101 -0.441736 -14.130365 -68.030499 0.627862 1.648305 -1.628051 -1.535397 6.771200 -0.439001 2.968092 10.012504 5.495980 11.194666 -27.464769 79.753269 6.797542 16.253494 -4.857722 7.531543 5.353816 15.094073 
0.000000 0.000000 0.000000 143.214855 -1.562726 2.467717 18.521225 -15.869424 1.570657 4.686238 50.626403 2.159559 3.923534 14.213193 -3.190604 2.200219 -45.954932 -5.154929 -1.525310 -6.704011 8.285682 -3.749160 10.715830 0.755557 -29.673385 -8.180311 -11.787113 0.000000 -0.000000 0.000000 0.560640 0.815915 -1.771380 0.660246 -5.105649 -1.581071 0.190752 6.102253 -0.571934 -4.962463 10.275111 0.887298 -10.012913 -16.691830 3.970716 -2.749153 2.235650 -11.946993 -0.070886 -14.078127 -68.075726 0.498417 1.672331 -1.602803 -1.802299 6.410797 0.506952 2.965225 10.023512 5.551671 12.262940 -27.724412 79.323771 6.969583 16.650437 -4.670139 7.670179 5.276508 15.097115 
0.000000 0.000000 0.000000 141.300798 -1.412705 2.658489 18.501764 -17.178377 1.331604 4.731018 51.383980 2.450108 3.946352 13.683457 -3.051428 2.203036 -44.956311 -5.313264 -0.670690 -6.951016 8.126737 -3.380353 11.455622 0.704268 -29.026728 -8.527062 -11.594013 0.000000 -0.000000 0.000000 0.554569 0.801729 -1.848000 0.661814 -5.118099 -1.649449 0.188777 6.097457 -0.597636 -5.611717 10.392146 0.935865 -11.277040 -16.411451 4.341096 -2.648604 2.104170 -12.038941 0.492196 -14.085666 -68.194056 0.438681 1.613332 -1.627010 -2.140285 5.923966 1.709760 2.931858 10.054035 5.638173 13.470359 -28.023592 78.846075 6.907115 17.175579 -4.581417 7.830773 5.266122 15.080498 
0.000000 0.000000 0.000000 139.384853 -1.296501 2.846577 18.263995 -18.224528 1.127525 4.712713 51.584961 2.607293 3.967917 13.108509 -3.095606 2.070707 -43.601496 -5.173985 0.103277 -7.060916 7.951035 -2.935193 12.014496 0.653858 -28.344939 -8.769290 -11.422248 0.000000 -0.000000 0.000000 0.514291 0.823211 -1.919812 0.632617 -5.098760 -1.713494 0.175480 6.104708 -0.622909 -6.255746 10.497120 0.976528 -12.525442 -16.148458 4.691053 -2.593393 2.054605 -12.077532 0.909077 -14.130253 -68.316782 0.373348 1.203047 -1.674721 -2.455878 5.394861 2.824633 2.899943 10.073259 5.669720 14.612908 -28.358092 78.462547 6.714321 17.593462 -4.582031 7.934797 5.329905 15.078230 
0.000000 0.000000 0.000000 137.506784 -1.271062 3.030080 17.816879 -18.920622 0.958322 4.543269 51.153171 2.586448 3.973052 12.776191 -3.309798 1.837774 -42.142903 -4.751508 0.720265 -6.916601 7.762078 -2.352163 12.298582 0.615630 -27.644317 -8.876727 -11.282149 0.000000 -0.000000 0.000000 0.415131 0.923901 -1.992156 0.551288 -5.008895 -1.777789 0.142791 6.138605 -0.650303 -6.894448 10.565134 1.010301 -13.762591 -15.949286 5.026902 -2.628635 2.152128 -12.042997 1.033214 -14.225179 -68.430212 0.277058 0.144785 -1.734871 -2.745173 4.773491 3.816165 2.879880 10.070370 5.605541 15.679607 -28.771260 78.240414 6.324084 17.820270 -4.732146 7.938290 5.522914 15.102682 
0.000000 0.000000 0.000000 135.626151 -1.279615 3.216411 17.153204 -19.355125 0.796810 4.375445 50.156972 2.545389 3.992667 12.380919 -3.703265 1.510883 -40.296987 -4.115305 1.255276 -6.637990 7.547311 -1.692564 12.400157 0.583915 -26.907531 -8.878743 -11.160143 0.000000 -0.000000 0.000000 0.281322 1.060025 -2.065306 0.439244 -4.887483 -1.842564 0.098628 6.184459 -0.678994 -7.527061 10.620429 1.040941 -14.986193 -15.768378 5.352647 -2.709000 2.337454 -11.965676 1.008535 -14.358888 -68.538460 0.165155 -1.264506 -1.813913 -3.026878 4.105456 4.715947 2.860656 10.048930 5.488103 16.677644 -29.218698 78.116792 5.801256 17.941780 -4.982894 7.887900 5.792565 15.136928 
0.000000 0.000000 0.000000 133.702264 -1.252567 3.349185 16.374122 -19.641107 0.692026 4.320006 48.753411 2.621940 4.071643 11.839357 -4.105987 1.242504 -38.083276 -3.598949 1.852444 -6.334572 7.351474 -1.082252 12.351439 0.562645 -26.119314 -8.804466 -11.048541 0.000000 -0.000000 0.000000 0.162756 1.189347 -2.102603 0.337386 -4.772232 -1.875299 0.059447 6.228024 -0.695163 -8.136418 10.663674 1.073095 -16.165347 -15.606488 5.669693 -2.766864 2.471018 -11.898229 0.934356 -14.467434 -68.602863 0.029009 -2.401862 -1.907451 -3.224858 3.606816 5.275775 2.842607 9.997517 5.358858 17.427863 -29.569117 78.036405 5.444282 17.974608 -5.151873 7.838285 5.984605 15.174418 
0.000000 0.000000 0.000000 131.724314 -1.180584 3.402143 15.479630 -19.783962 0.633430 4.657893 46.914038 3.064848 4.401789 11.057646 -4.400130 1.112522 -35.352357 -3.493549 2.568412 -6.025396 7.188516 -0.577999 12.141201 0.561696 -25.266565 -8.644413 -10.949537 0.000000 -0.000000 0.000000 0.081209 1.320869 -2.086079 0.263596 -4.655227 -1.860079 0.032614 6.272199 -0.692199 -8.729001 10.685413 1.110426 -17.316028 -15.480878 5.990746 -2.789901 2.487218 -11.853687 0.785798 -14.526698 -68.591874 -0.124159 -3.129337 -2.030874 -3.304148 3.344166 5.325569 2.824821 9.901028 5.218559 17.860104 -29.785528 77.990787 5.361671 17.848367 -5.173792 7.797933 6.033120 15.220598 
0.000000 0.000000 0.000000 129.703202 -1.079208 3.397785 14.473798 -19.770778 0.612463 5.099266 44.680427 3.672345 4.813116 10.142766 -4.672488 1.015575 -32.274500 -3.530756 3.347426 -5.691289 7.042845 -0.124405 11.781397 0.576060 -24.362933 -8.406909 -10.856675 0.000000 -0.000000 0.000000 0.015461 1.450633 -2.033428 0.200575 -4.539915 -1.812690 0.010986 6.315720 -0.676681 -9.297672 10.694437 1.152284 -18.423745 -15.375915 6.310775 -2.790242 2.450410 -11.810833 0.590073 -14.555968 -68.539081 -0.297277 -3.585508 -2.166517 -3.306858 3.241597 5.026916 2.809158 9.773376 5.070303 18.044089 -29.907654 77.983853 5.438046 17.630601 -5.100752 7.753246 6.004294 15.272505 
0.000000 0.000000 0.000000 127.631113 -0.918340 3.347745 13.459520 -19.678065 0.695821 4.954841 42.311177 3.939814 4.800290 9.291840 -5.079029 0.847947 -29.338267 -3.238488 4.165767 -5.382453 6.919209 0.321279 11.339544 0.586192 -23.433390 -8.148276 -10.750269 0.000000 -0.000000 0.000000 -0.048782 1.518691 -1.955702 0.136352 -4.479524 -1.743130 -0.010563 6.338656 -0.652771 -9.805903 10.718334 1.192204 -19.411320 -15.247220 6.596310 -2.737742 2.413354 -11.766338 0.526534 -14.555942 -68.514934 -0.505131 -3.561995 -2.262160 -3.258865 3.299902 4.628411 2.800797 9.651449 4.957766 18.012527 -29.923578 77.973923 5.635242 17.544695 -4.920117 7.724465 5.939948 15.316566 
0.000000 0.000000 0.000000 125.491929 -0.678898 3.247326 12.641256 -19.511056 0.852072 4.011154 39.780225 3.802772 4.156381 8.574179 -5.678560 0.596945 -26.642664 -2.497730 5.043228 -5.122257 6.823912 0.770466 10.827912 0.589340 -22.496577 -7.890459 -10.636132 0.000000 -0.000000 0.000000 -0.108608 1.490600 -1.845896 0.072942 -4.504708 -1.645235 -0.031111 6.329492 -0.618077 -10.244540 10.773309 1.219226 -20.253553 -15.071520 6.820010 -2.597474 2.381647 -11.723199 0.707508 -14.522940 -68.560353 -0.761556 -2.795471 -2.293337 -3.150677 3.584537 4.155255 2.806254 9.556254 4.901226 17.699144 -29.799879 77.940396 6.014226 17.715689 -4.560769 7.724450 5.829236 15.351832 
0.000000 0.000000 0.000000 123.301080 -0.385413 3.093476 11.820714 -19.249868 1.101677 2.627353 37.086439 3.512294 3.107767 7.828632 -6.447724 0.334601 -23.993270 -1.567314 5.960758 -4.887602 6.749312 1.210815 10.233861 0.591346 -21.534313 -7.611600 -10.505985 0.000000 -0.000000 0.000000 -0.166976 1.404692 -1.702542 0.007821 -4.581366 -1.517596 -0.051355 6.301013 -0.572217 -10.624457 10.841543 1.237987 -20.976241 -14.881038 6.999624 -2.404572 2.350584 -11.679082 1.020687 -14.461985 -68.643072 -1.042921 -1.548675 -2.292737 -3.015765 4.028910 3.570981 2.819407 9.471290 4.878864 17.177543 -29.578658 77.882993 6.512882 18.011078 -4.078558 7.739125 5.681697 15.382357 
0.000000 0.000000 0.000000 121.098103 -0.071865 2.900676 10.496727 -18.912370 1.595847 1.041738 34.496479 3.078762 1.819946 6.857189 -7.403810 0.110627 -21.399884 -0.585474 6.836068 -4.658520 6.679881 1.650183 9.586662 0.584258 -20.516058 -7.303345 -10.320051 0.000000 -0.000000 0.000000 -0.247089 1.308732 -1.544290 -0.077981 -4.666924 -1.376675 -0.078906 6.269224 -0.522119 -10.939355 10.900803 1.264040 -21.578134 -14.714163 7.166349 -2.234598 2.357679 -11.627685 1.307882 -14.389470 -68.724749 -1.308280 -0.401942 -2.289827 -2.916035 4.438043 3.040126 2.826424 9.378192 4.870333 16.687427 -29.360095 77.799032 6.913568 18.274930 -3.666555 7.752205 5.569326 15.401374 
0.000000 0.000000 0.000000 118.883545 0.260291 2.655719 8.400582 -18.474663 2.437203 -0.867517 32.067322 2.422330 0.208906 5.396012 -8.622507 -0.076107 -18.741518 0.531220 7.643758 -4.433484 6.630560 2.104782 8.874703 0.567396 -19.433435 -6.957598 -10.073951 0.000000 -0.000000 0.000000 -0.358153 1.213060 -1.368501 -0.192971 -4.752219 -1.220044 -0.116869 6.237549 -0.467184 -11.175680 10.946268 1.303477 -22.037553 -14.581832 7.327944 -2.112718 2.422519 -11.571000 1.533620 -14.306004 -68.796765 -1.571858 0.501780 -2.280606 -2.863232 4.767343 2.632631 2.825756 9.270910 4.873536 16.312787 -29.166898 77.682582 7.164347 18.514652 -3.396902 7.766462 5.519993 15.420577 
0.000000 0.000000 0.000000 116.655806 0.607736 2.369193 5.824174 -17.879125 3.495420 -2.909890 29.666244 1.731742 -1.542897 3.550650 -9.874857 -0.204691 -16.031865 1.565143 8.409754 -4.213948 6.585147 2.557631 8.108593 0.545802 -18.295189 -6.583589 -9.768515 0.000000 -0.000000 0.000000 -0.490953 1.109929 -1.176237 -0.328744 -4.844170 -1.048660 -0.162083 6.203326 -0.407479 -11.346604 10.985055 1.350974 -22.376495 -14.471332 7.479357 -2.014411 2.526001 -11.512226 1.733278 -14.211626 -68.868985 -1.818931 1.305715 -2.263957 -2.829846 5.062483 2.283921 2.819357 9.156894 4.892265 15.969030 -28.978350 77.541331 7.322711 18.729031 -3.210312 7.782205 5.505478 15.427463 
